<mxfile host="app.diagrams.net" modified="2024-06-03T23:41:47.883Z" agent="Mozilla/5.0 (Windows NT 10.0; Win64; x64) AppleWebKit/537.36 (KHTML, like Gecko) Chrome/125.0.0.0 Safari/537.36" version="24.4.0" etag="t5Tdk6sqVNz4j8Vl_vuz" type="github">
  <diagram name="Page-1" id="89X0OO9_uZhQcRqU3iFE">
    <mxGraphModel>
      <root>
        <mxCell id="0" />
        <mxCell id="1" parent="0" />
      </root>
    </mxGraphModel>
  </diagram>
</mxfile>
